<?xml version="1.0" encoding="iso-8859-1"?>
<!-- Generator: Adobe Illustrator 19.0.0, SVG Export Plug-In . SVG Version: 6.00 Build 0)  -->
<svg version="1.1" id="Layer_1" xmlns="http://www.w3.org/2000/svg" xmlns:xlink="http://www.w3.org/1999/xlink" x="0px" y="0px"
	 viewBox="0 0 512 512" style="enable-background:new 0 0 512 512;" xml:space="preserve">
<path style="fill:#FFD3AE;" d="M256.039,69.72L256.039,69.72c-56.939-56.939-149.257-56.939-206.196,0l0,0
	c-56.939,56.939-56.939,149.257,0,206.196l0,0l206.196,206.196l206.196-206.196l0,0c56.939-56.939,56.939-149.257,0-206.196l0,0
	C405.296,12.78,312.979,12.78,256.039,69.72L256.039,69.72z"/>
<g>
	<path style="fill:#F95428;" d="M411.761,40.026l-76.394,76.405c-22.171-16.204-49.179-24.434-76.613-23.349l-72.112,2.828
		c-1.016,0.046-2.008,0.162-2.978,0.335l-0.046-0.208l-62.486-62.475c46.974-10.745,98.265,2.181,134.863,38.768
		c28.3-28.277,65.383-42.438,102.455-42.438C376.571,29.892,394.68,33.274,411.761,40.026z"/>
	<path style="fill:#F95428;" d="M493.164,121.371c6.786,17.116,10.18,35.271,10.18,53.414c0,37.095-14.138,74.166-42.427,102.455
		L255.996,482.15L51.098,277.24C22.798,248.952,8.66,211.88,8.66,174.786c0-17.162,3.024-34.325,9.095-50.61l74.57,74.559
		c2.989,28.542,15.685,55.192,35.964,75.47l10.549,10.549l0.012,0.012c-5.748,3.809-9.533,10.341-9.533,17.751
		c0,11.772,9.533,21.306,21.294,21.306c5.425,0,10.364-2.02,14.115-5.344c-3.324,3.751-5.344,8.702-5.344,14.104
		c0,11.761,9.533,21.306,21.294,21.306c5.517,0,10.549-2.101,14.335-5.54l1.05,0.219c-3.843,3.855-6.232,9.187-6.232,15.062
		c0,11.761,9.533,21.306,21.294,21.306c7.364,0,13.838-3.728,17.67-9.395l1.362,0.381c3.67,2.966,8.114,4.444,12.58,4.444
		c5.124,0,10.237-1.962,14.15-5.875c7.825-7.814,7.825-20.498,0-28.312l19.298,19.298c7.814,7.814,20.498,7.814,28.312,0
		c3.901-3.913,5.863-9.037,5.863-14.161c0-5.044-1.904-10.087-5.69-13.977l14.993,14.993c7.825,7.814,20.498,7.814,28.312,0
		c3.913-3.913,5.875-9.037,5.875-14.162c0-5.124-1.962-10.237-5.875-14.15l-6.348-6.359c7.825,7.825,20.498,7.825,28.312,0
		c3.913-3.901,5.863-9.026,5.863-14.15s-1.951-10.249-5.863-14.162l-2.62-2.62l12.511-12.523
		c20.29-20.279,32.997-46.928,35.975-75.47L493.164,121.371z"/>
</g>
<path style="fill:#FFFFFF;" d="M321.829,152.36c-2.215,0-4.431-0.845-6.121-2.536c-18.928-18.928-46.354-21.714-46.629-21.74
	c-4.76-0.449-8.253-4.671-7.804-9.431c0.449-4.76,4.669-8.253,9.431-7.804c1.376,0.129,33.957,3.446,57.245,26.735
	c3.381,3.381,3.381,8.862,0,12.241C326.26,151.515,324.045,152.36,321.829,152.36z"/>
<path style="fill:#333333;" d="M501.21,118.183c-1.075-2.709-3.439-4.694-6.294-5.285c-2.854-0.591-5.812,0.295-7.873,2.357
	l-77.362,77.362c-1.403,1.403-2.283,3.247-2.488,5.221c-2.765,26.473-14.658,51.421-33.486,70.249l-6.396,6.396l-53.134-53.134
	c0.987,0.061,1.978,0.102,2.975,0.102c5.463,0,11.06-0.959,16.637-3.241c4.424-1.81,6.544-6.864,4.734-11.289
	c-1.809-4.424-6.86-6.543-11.289-4.734c-9.339,3.819-20.552,2.02-33.324-5.354c-9.056-5.227-15.828-11.613-17.542-13.294
	l-15.332-15.332c1.645-8.936-0.35-18.342-5.72-26.063c-6.458-9.286-16.719-14.612-28.213-14.612l-39.608,0.276
	c-3.059,0.029-5.902-1.144-8.059-3.286c-2.161-2.143-3.349-5.001-3.349-8.044v-0.59c0.007-6.111,4.79-11.085,10.893-11.323
	l72.116-2.838c25.396-0.997,50.66,6.707,71.16,21.691c3.445,2.52,8.212,2.15,11.229-0.867l76.404-76.404
	c2.062-2.062,2.948-5.024,2.356-7.878c-0.592-2.855-2.582-5.22-5.294-6.292c-18.028-7.125-37.036-10.737-56.497-10.737
	c-38.177,0-74.239,13.851-102.45,39.177c-37.147-33.351-87.66-46.526-136.799-35.295c-3.071,0.702-5.518,3.017-6.389,6.044
	s-0.029,6.289,2.199,8.515l54.129,54.119c-6.346,5.249-10.357,13.187-10.367,22.08v0.599c0,7.694,3.007,14.914,8.467,20.333
	c5.406,5.365,12.557,8.311,20.159,8.311c0.074,0,0.148,0,0.223,0l39.543-0.276c7.377,0,11.615,4.043,13.626,6.75
	c-2.2,0.012-4.396,0.854-6.074,2.533c-3.381,3.381-3.381,8.862,0,12.241L363.82,295.472c4.431,4.431,4.431,11.64,0,16.071
	c-4.431,4.43-11.64,4.431-16.071,0l-82.225-82.223c-3.381-3.381-8.862-3.381-12.241,0c-3.381,3.381-3.381,8.862,0,12.241
	l88.574,88.574c4.431,4.431,4.431,11.64,0,16.071c-4.431,4.43-11.64,4.431-16.071,0l-83.964-83.964
	c-3.381-3.381-8.862-3.381-12.241,0c-3.381,3.381-3.381,8.862,0,12.241l68.796,68.796c4.431,4.431,4.431,11.641,0,16.072
	c-4.431,4.43-11.64,4.431-16.07,0l-74.723-74.723c-3.381-3.381-8.862-3.381-12.241,0c-3.381,3.381-3.381,8.862,0,12.241
	l55.378,55.378c0.018,0.02,0.035,0.04,0.054,0.06c2.144,2.141,3.325,4.992,3.325,8.026c0,3.037-1.183,5.891-3.33,8.039
	c-2.15,2.149-5.003,3.333-8.034,3.333c-0.914,0-1.805-0.112-2.667-0.316c0.665-2.476,1.025-5.075,1.025-7.758
	c0-16.519-13.44-29.96-29.96-29.96c-0.173,0-0.343,0.01-0.515,0.013c0.013-0.365,0.028-0.731,0.028-1.099
	c0-16.519-13.44-29.96-29.96-29.96c-0.036,0-0.072,0.002-0.107,0.002c0-0.036,0.002-0.072,0.002-0.108
	c0-16.519-13.44-29.96-29.96-29.96c-3.509,0-6.875,0.612-10.007,1.724l-6.196-6.196c-18.82-18.819-30.706-43.767-33.474-70.249
	c-0.207-1.975-1.085-3.818-2.49-5.221l-74.571-74.56c-2.083-2.083-5.082-2.962-7.961-2.337c-2.878,0.627-5.241,2.674-6.269,5.435
	C3.247,138.326,0,156.37,0,174.787c0,41.022,15.974,79.58,44.978,108.572l204.901,204.914c1.624,1.624,3.825,2.536,6.122,2.536
	c2.297,0,4.498-0.912,6.12-2.536l204.914-204.914C496.031,254.362,512,215.804,512,174.787
	C512,155.271,508.369,136.226,501.21,118.183z M139.118,39.301c40.798-4.41,81.274,9.666,110.762,39.155
	c3.379,3.381,8.859,3.381,12.24,0.001c25.746-25.734,59.956-39.907,96.331-39.907c12.736,0,25.252,1.743,37.358,5.191l-61.48,61.48
	c-21.039-13.584-45.785-20.891-70.861-20.891c-1.683,0-3.37,0.032-5.055,0.099l-71.352,2.808L139.118,39.301z M223.775,363.629
	c0,6.973-5.674,12.647-12.647,12.647s-12.647-5.674-12.647-12.647s5.674-12.647,12.647-12.647S223.775,356.654,223.775,363.629z
	 M180.68,319.935c6.973,0,12.647,5.674,12.647,12.647s-5.674,12.647-12.647,12.647c-6.973,0-12.647-5.674-12.647-12.647
	c0-3.138,1.156-6.007,3.056-8.221c0.472-0.442,0.929-0.899,1.371-1.371C174.673,321.091,177.542,319.935,180.68,319.935z
	 M163.264,302.517c0,3.139-1.156,6.009-3.056,8.221c-0.471,0.442-0.928,0.899-1.37,1.37c-2.214,1.9-5.083,3.056-8.221,3.056
	c-6.973,0-12.647-5.674-12.647-12.647s5.674-12.647,12.647-12.647C157.59,289.87,163.264,295.544,163.264,302.517z M454.793,271.117
	L255.999,469.91L57.217,271.116c-25.733-25.723-39.905-59.933-39.905-96.33c0-11.7,1.475-23.226,4.395-34.419L84.08,202.73
	c3.754,29.264,17.207,56.715,38.091,77.598l4.373,4.374c-3.698,4.983-5.89,11.147-5.89,17.816c0,16.519,13.44,29.96,29.96,29.96
	c0.036,0,0.072-0.002,0.108-0.002c0,0.036-0.002,0.072-0.002,0.107c0,16.519,13.44,29.96,29.96,29.96
	c0.173,0,0.343-0.01,0.516-0.013c-0.013,0.365-0.028,0.731-0.028,1.099c0,16.519,13.44,29.96,29.96,29.96
	c7.451,0,14.27-2.74,19.517-7.259c3.763,1.747,7.891,2.686,12.086,2.686c7.656,0,14.856-2.983,20.275-8.403
	c2.81-2.81,4.959-6.104,6.384-9.691l0.671,0.671c5.591,5.591,12.934,8.386,20.276,8.386c7.344,0,14.687-2.795,20.277-8.386
	c2.97-2.97,5.127-6.443,6.519-10.138c4.971,3.565,10.82,5.38,16.685,5.38c7.344,0,14.687-2.795,20.277-8.386
	c7.278-7.278,9.787-17.521,7.59-26.873c5.407-1.126,10.377-3.793,14.374-7.789c9.988-9.988,11.027-25.555,3.171-36.738l6.718-6.718
	c20.891-20.891,34.348-48.344,38.103-77.599l65.411-65.411c3.472,12.133,5.225,24.685,5.225,37.467
	C494.688,211.181,480.519,245.391,454.793,271.117z"/>
<g>
</g>
<g>
</g>
<g>
</g>
<g>
</g>
<g>
</g>
<g>
</g>
<g>
</g>
<g>
</g>
<g>
</g>
<g>
</g>
<g>
</g>
<g>
</g>
<g>
</g>
<g>
</g>
<g>
</g>
</svg>
