<?xml version="1.0" standalone="yes"?>

<svg version="1.1" viewBox="0.0 0.0 40.0 50.0" fill="none" stroke="none" stroke-linecap="square" stroke-miterlimit="10" xmlns="http://www.w3.org/2000/svg" xmlns:xlink="http://www.w3.org/1999/xlink"><clipPath id="p.0"><path d="m0 0l40.0 0l0 50.0l-40.0 0l0 -50.0z" clip-rule="nonzero"></path></clipPath><g clip-path="url(#p.0)"><path fill="#000000" fill-opacity="0.0" d="m0 0l40.0 0l0 50.0l-40.0 0z" fill-rule="nonzero"></path><path fill="#fe2e2e" d="m0.6824147 6.8583956l0 0c0 -3.525416 2.857914 -6.38333 6.38333 -6.38333l26.004995 0l0 0c1.6929626 0 3.3165894 0.67252743 4.513695 1.869634c1.1971054 1.1971066 1.8696327 2.8207314 1.8696327 4.5136957l0 25.532555c0 3.5254135 -2.857914 6.3833275 -6.3833275 6.3833275l-26.004995 0c-3.5254157 0 -6.38333 -2.857914 -6.38333 -6.3833275z" fill-rule="nonzero"></path><path stroke="#000000" stroke-width="1.0" stroke-linejoin="round" stroke-linecap="butt" d="m0.6824147 6.8583956l0 0c0 -3.525416 2.857914 -6.38333 6.38333 -6.38333l26.004995 0l0 0c1.6929626 0 3.3165894 0.67252743 4.513695 1.869634c1.1971054 1.1971066 1.8696327 2.8207314 1.8696327 4.5136957l0 25.532555c0 3.5254135 -2.857914 6.3833275 -6.3833275 6.3833275l-26.004995 0c-3.5254157 0 -6.38333 -2.857914 -6.38333 -6.3833275z" fill-rule="nonzero"></path><path fill="#000000" d="m10.8359585 40.133858l18.464567 0l-9.232285 9.866142z" fill-rule="nonzero"></path><path fill="#ffffff" d="m30.535725 14.28084l0 0c0 -1.3307018 1.0787468 -2.4094486 2.4094505 -2.4094486l0 0c0.6390228 0 1.2518768 0.2538519 1.7037354 0.70571136c0.45185852 0.45185852 0.70571136 1.0647116 0.70571136 1.7037373l0 0c0 1.3307018 -1.0787468 2.4094486 -2.4094467 2.4094486l0 0c-1.3307037 0 -2.4094505 -1.0787468 -2.4094505 -2.4094486z" fill-rule="nonzero"></path><path fill="#ffffff" d="m30.348423 18.183035l0 0c0 -0.47836685 0.3877926 -0.86615944 0.86615944 -0.86615944l3.4645329 0l0 0c0.22971725 0 0.45003128 0.091257095 0.6124649 0.25369263c0.16243744 0.16243744 0.25369263 0.38274765 0.25369263 0.6124668l0 4.881855c0 0.47836685 -0.38779068 0.86615944 -0.86615753 0.86615944l-3.4645329 0c-0.47836685 0 -0.86615944 -0.3877926 -0.86615944 -0.86615944z" fill-rule="nonzero"></path><path fill="#cfe2f3" d="m27.755566 11.898323l0 0c0.028993607 -0.01449585 0.063776016 -0.0025157928 0.07769203 0.026759148l3.288189 6.917609c0.0066833496 0.014057159 0.00756073 0.030305862 0.0024414062 0.045167923c-0.0051193237 0.014863968 -0.015815735 0.027124405 -0.02973938 0.034086227l-0.20997047 0.10498428c-0.0289917 0.014497757 -0.063776016 0.0025157928 -0.07769203 -0.026758194l-3.288189 -6.917609c-0.013916016 -0.02927494 -0.0016937256 -0.0647583 0.027297974 -0.07925415z" fill-rule="nonzero"></path><path stroke="#ffffff" stroke-width="1.0" stroke-linejoin="round" stroke-linecap="butt" d="m27.755566 11.898323l0 0c0.028993607 -0.01449585 0.063776016 -0.0025157928 0.07769203 0.026759148l3.288189 6.917609c0.0066833496 0.014057159 0.00756073 0.030305862 0.0024414062 0.045167923c-0.0051193237 0.014863968 -0.015815735 0.027124405 -0.02973938 0.034086227l-0.20997047 0.10498428c-0.0289917 0.014497757 -0.063776016 0.0025157928 -0.07769203 -0.026758194l-3.288189 -6.917609c-0.013916016 -0.02927494 -0.0016937256 -0.0647583 0.027297974 -0.07925415z" fill-rule="nonzero"></path><path fill="#cfe2f3" d="m37.916286 11.898323l0 0c-0.0289917 -0.01449585 -0.06377411 -0.0025157928 -0.077690125 0.026759148l-3.288189 6.917609c-0.0066833496 0.014057159 -0.00756073 0.030305862 -0.0024414062 0.045167923c0.0051193237 0.014863968 0.015815735 0.027124405 0.02973938 0.034086227l0.20997238 0.10498428c0.0289917 0.014497757 0.06377411 0.0025157928 0.077690125 -0.026758194l3.288189 -6.917609c0.013916016 -0.02927494 0.0016937256 -0.0647583 -0.027297974 -0.07925415z" fill-rule="nonzero"></path><path stroke="#ffffff" stroke-width="1.0" stroke-linejoin="round" stroke-linecap="butt" d="m37.916286 11.898323l0 0c-0.0289917 -0.01449585 -0.06377411 -0.0025157928 -0.077690125 0.026759148l-3.288189 6.917609c-0.0066833496 0.014057159 -0.00756073 0.030305862 -0.0024414062 0.045167923c0.0051193237 0.014863968 0.015815735 0.027124405 0.02973938 0.034086227l0.20997238 0.10498428c0.0289917 0.014497757 0.06377411 0.0025157928 0.077690125 -0.026758194l3.288189 -6.917609c0.013916016 -0.02927494 0.0016937256 -0.0647583 -0.027297974 -0.07925415z" fill-rule="nonzero"></path><path fill="#ffffff" d="m34.533775 23.160065l0 0c0.11886978 -0.02029419 0.23100281 0.059728622 0.25046158 0.17873573l1.2838669 7.852503c0.009346008 0.05714798 -0.004371643 0.11582756 -0.0381279 0.1631298c-0.03375244 0.047302246 -0.08478546 0.079351425 -0.14186859 0.08909607l-0.8608818 0.14698029c-0.11886978 0.02029419 -0.23100281 -0.059726715 -0.25045776 -0.17873383l-1.2838707 -7.852503c-0.01945877 -0.11900711 0.061130524 -0.2319336 0.17999649 -0.25222778z" fill-rule="nonzero"></path><path stroke="#ffffff" stroke-width="1.0" stroke-linejoin="round" stroke-linecap="butt" d="m34.533775 23.160065l0 0c0.11886978 -0.02029419 0.23100281 0.059728622 0.25046158 0.17873573l1.2838669 7.852503c0.009346008 0.05714798 -0.004371643 0.11582756 -0.0381279 0.1631298c-0.03375244 0.047302246 -0.08478546 0.079351425 -0.14186859 0.08909607l-0.8608818 0.14698029c-0.11886978 0.02029419 -0.23100281 -0.059726715 -0.25045776 -0.17873383l-1.2838707 -7.852503c-0.01945877 -0.11900711 0.061130524 -0.2319336 0.17999649 -0.25222778z" fill-rule="nonzero"></path><path fill="#ffffff" d="m31.257118 23.160065l0 0c-0.11886597 -0.02029419 -0.2310009 0.059728622 -0.25045776 0.17873573l-1.2838688 7.852503c-0.009344101 0.05714798 0.0043697357 0.11582756 0.03812599 0.1631298c0.033756256 0.047302246 0.08478737 0.079351425 0.1418705 0.08909607l0.8608837 0.14698029c0.11886597 0.02029419 0.2310009 -0.059726715 0.25045776 -0.17873383l1.2838707 -7.852503c0.019454956 -0.11900711 -0.061130524 -0.2319336 -0.17999649 -0.25222778z" fill-rule="nonzero"></path><path stroke="#ffffff" stroke-width="1.0" stroke-linejoin="round" stroke-linecap="butt" d="m31.257118 23.160065l0 0c-0.11886597 -0.02029419 -0.2310009 0.059728622 -0.25045776 0.17873573l-1.2838688 7.852503c-0.009344101 0.05714798 0.0043697357 0.11582756 0.03812599 0.1631298c0.033756256 0.047302246 0.08478737 0.079351425 0.1418705 0.08909607l0.8608837 0.14698029c0.11886597 0.02029419 0.2310009 -0.059726715 0.25045776 -0.17873383l1.2838707 -7.852503c0.019454956 -0.11900711 -0.061130524 -0.2319336 -0.17999649 -0.25222778z" fill-rule="nonzero"></path><path fill="#ffffff" d="m5.795567 14.28084l0 0c0 -1.3307018 1.0787473 -2.4094486 2.409449 -2.4094486l0 0c0.6390257 0 1.2518778 0.2538519 1.7037373 0.70571136c0.45185947 0.45185852 0.70571136 1.0647116 0.70571136 1.7037373l0 0c0 1.3307018 -1.0787468 2.4094486 -2.4094486 2.4094486l0 0c-1.3307018 0 -2.409449 -1.0787468 -2.409449 -2.4094486z" fill-rule="nonzero"></path><path fill="#ffffff" d="m5.608266 18.183035l0 0c0 -0.47836685 0.3877926 -0.86615944 0.86615896 -0.86615944l3.4645324 0l0 0c0.22972012 0 0.45003033 0.091257095 0.6124668 0.25369263c0.16243649 0.16243744 0.25369263 0.38274765 0.25369263 0.6124668l0 4.881855c0 0.47836685 -0.3877926 0.86615944 -0.86615944 0.86615944l-3.4645324 0c-0.47836637 0 -0.86615896 -0.3877926 -0.86615896 -0.86615944z" fill-rule="nonzero"></path><path fill="#cfe2f3" d="m3.015409 11.898323l0 0c0.028991938 -0.01449585 0.06377506 -0.0025157928 0.0776906 0.026759148l3.2881904 6.917609c0.006682396 0.014057159 0.00756073 0.030305862 0.0024409294 0.045167923c-0.0051193237 0.014863968 -0.015816689 0.027124405 -0.02973938 0.034086227l-0.20997143 0.10498428c-0.028992176 0.014497757 -0.06377554 0.0025157928 -0.0776906 -0.026758194l-3.2881906 -6.917609c-0.0139153 -0.02927494 -0.0016934872 -0.0647583 0.02729845 -0.07925415z" fill-rule="nonzero"></path><path stroke="#ffffff" stroke-width="1.0" stroke-linejoin="round" stroke-linecap="butt" d="m3.015409 11.898323l0 0c0.028991938 -0.01449585 0.06377506 -0.0025157928 0.0776906 0.026759148l3.2881904 6.917609c0.006682396 0.014057159 0.00756073 0.030305862 0.0024409294 0.045167923c-0.0051193237 0.014863968 -0.015816689 0.027124405 -0.02973938 0.034086227l-0.20997143 0.10498428c-0.028992176 0.014497757 -0.06377554 0.0025157928 -0.0776906 -0.026758194l-3.2881906 -6.917609c-0.0139153 -0.02927494 -0.0016934872 -0.0647583 0.02729845 -0.07925415z" fill-rule="nonzero"></path><path fill="#cfe2f3" d="m13.17613 11.898323l0 0c-0.028992653 -0.01449585 -0.063776016 -0.0025157928 -0.07769108 0.026759148l-3.28819 6.917609c-0.006682396 0.014057159 -0.00756073 0.030305862 -0.0024414062 0.045167923c0.0051193237 0.014863968 0.015816689 0.027124405 0.02973938 0.034086227l0.20997143 0.10498428c0.0289917 0.014497757 0.06377506 0.0025157928 0.07769108 -0.026758194l3.28819 -6.917609c0.013916016 -0.02927494 0.0016937256 -0.0647583 -0.027297974 -0.07925415z" fill-rule="nonzero"></path><path stroke="#ffffff" stroke-width="1.0" stroke-linejoin="round" stroke-linecap="butt" d="m13.17613 11.898323l0 0c-0.028992653 -0.01449585 -0.063776016 -0.0025157928 -0.07769108 0.026759148l-3.28819 6.917609c-0.006682396 0.014057159 -0.00756073 0.030305862 -0.0024414062 0.045167923c0.0051193237 0.014863968 0.015816689 0.027124405 0.02973938 0.034086227l0.20997143 0.10498428c0.0289917 0.014497757 0.06377506 0.0025157928 0.07769108 -0.026758194l3.28819 -6.917609c0.013916016 -0.02927494 0.0016937256 -0.0647583 -0.027297974 -0.07925415z" fill-rule="nonzero"></path><path fill="#ffffff" d="m9.793619 23.160065l0 0c0.11886692 -0.02029419 0.2310009 0.059728622 0.25045872 0.17873573l1.2838688 7.852503c0.009344101 0.05714798 -0.0043706894 0.11582756 -0.03812599 0.1631298c-0.033756256 0.047302246 -0.08478832 0.079351425 -0.1418705 0.08909607l-0.8608837 0.14698029c-0.11886692 0.02029419 -0.2310009 -0.059726715 -0.25045776 -0.17873383l-1.2838697 -7.852503c-0.019456863 -0.11900711 0.06112957 -0.2319336 0.17999649 -0.25222778z" fill-rule="nonzero"></path><path stroke="#ffffff" stroke-width="1.0" stroke-linejoin="round" stroke-linecap="butt" d="m9.793619 23.160065l0 0c0.11886692 -0.02029419 0.2310009 0.059728622 0.25045872 0.17873573l1.2838688 7.852503c0.009344101 0.05714798 -0.0043706894 0.11582756 -0.03812599 0.1631298c-0.033756256 0.047302246 -0.08478832 0.079351425 -0.1418705 0.08909607l-0.8608837 0.14698029c-0.11886692 0.02029419 -0.2310009 -0.059726715 -0.25045776 -0.17873383l-1.2838697 -7.852503c-0.019456863 -0.11900711 0.06112957 -0.2319336 0.17999649 -0.25222778z" fill-rule="nonzero"></path><path fill="#ffffff" d="m6.516961 23.160065l0 0c-0.11886692 -0.02029419 -0.2310009 0.059728622 -0.25045824 0.17873573l-1.2838693 7.852503c-0.009343624 0.05714798 0.0043706894 0.11582756 0.038126945 0.1631298c0.03375578 0.047302246 0.084787846 0.079351425 0.14186954 0.08909607l0.8608842 0.14698029c0.11886644 0.02029419 0.23100042 -0.059726715 0.25045776 -0.17873383l1.2838693 -7.852503c0.01945734 -0.11900711 -0.06112957 -0.2319336 -0.17999649 -0.25222778z" fill-rule="nonzero"></path><path stroke="#ffffff" stroke-width="1.0" stroke-linejoin="round" stroke-linecap="butt" d="m6.516961 23.160065l0 0c-0.11886692 -0.02029419 -0.2310009 0.059728622 -0.25045824 0.17873573l-1.2838693 7.852503c-0.009343624 0.05714798 0.0043706894 0.11582756 0.038126945 0.1631298c0.03375578 0.047302246 0.084787846 0.079351425 0.14186954 0.08909607l0.8608842 0.14698029c0.11886644 0.02029419 0.23100042 -0.059726715 0.25045776 -0.17873383l1.2838693 -7.852503c0.01945734 -0.11900711 -0.06112957 -0.2319336 -0.17999649 -0.25222778z" fill-rule="nonzero"></path><path fill="#ffb4b3" d="m18.165646 14.28084l0 0c0 -1.3307018 1.0787468 -2.4094486 2.4094486 -2.4094486l0 0c0.63902664 0 1.2518787 0.2538519 1.7037373 0.70571136c0.45186043 0.45185852 0.70571136 1.0647116 0.70571136 1.7037373l0 0c0 1.3307018 -1.0787468 2.4094486 -2.4094486 2.4094486l0 0c-1.3307018 0 -2.4094486 -1.0787468 -2.4094486 -2.4094486z" fill-rule="nonzero"></path><path fill="#ffb4b3" d="m17.978344 18.183035l0 0c0 -0.47836685 0.3877926 -0.86615944 0.86615944 -0.86615944l3.4645329 0l0 0c0.22971916 0 0.45002937 0.091257095 0.6124668 0.25369263c0.16243553 0.16243744 0.25369263 0.38274765 0.25369263 0.6124668l0 4.881855c0 0.47836685 -0.3877926 0.86615944 -0.86615944 0.86615944l-3.4645329 0c-0.47836685 0 -0.86615944 -0.3877926 -0.86615944 -0.86615944z" fill-rule="nonzero"></path><path fill="#ffb4b3" d="m15.385488 11.898323l0 0c0.0289917 -0.01449585 0.06377506 -0.0025157928 0.07769108 0.026759148l3.2881908 6.917609c0.0066814423 0.014057159 0.0075588226 0.030305862 0.002439499 0.045167923c-0.0051193237 0.014863968 -0.015815735 0.027124405 -0.02973938 0.034086227l-0.20997047 0.10498428c-0.0289917 0.014497757 -0.063776016 0.0025157928 -0.077690125 -0.026758194l-3.2881908 -6.917609c-0.013916016 -0.02927494 -0.0016937256 -0.0647583 0.027297974 -0.07925415z" fill-rule="nonzero"></path><path stroke="#ffb4b3" stroke-width="1.0" stroke-linejoin="round" stroke-linecap="butt" d="m15.385488 11.898323l0 0c0.0289917 -0.01449585 0.06377506 -0.0025157928 0.07769108 0.026759148l3.2881908 6.917609c0.0066814423 0.014057159 0.0075588226 0.030305862 0.002439499 0.045167923c-0.0051193237 0.014863968 -0.015815735 0.027124405 -0.02973938 0.034086227l-0.20997047 0.10498428c-0.0289917 0.014497757 -0.063776016 0.0025157928 -0.077690125 -0.026758194l-3.2881908 -6.917609c-0.013916016 -0.02927494 -0.0016937256 -0.0647583 0.027297974 -0.07925415z" fill-rule="nonzero"></path><path fill="#ffb4b3" d="m25.54621 11.898323l0 0c-0.0289917 -0.01449585 -0.063776016 -0.0025157928 -0.07769203 0.026759148l-3.288189 6.917609c-0.0066833496 0.014057159 -0.00756073 0.030305862 -0.0024414062 0.045167923c0.0051193237 0.014863968 0.015815735 0.027124405 0.02973938 0.034086227l0.20997047 0.10498428c0.028993607 0.014497757 0.063776016 0.0025157928 0.07769203 -0.026758194l3.288189 -6.917609c0.013916016 -0.02927494 0.0016937256 -0.0647583 -0.027297974 -0.07925415z" fill-rule="nonzero"></path><path stroke="#ffb4b3" stroke-width="1.0" stroke-linejoin="round" stroke-linecap="butt" d="m25.54621 11.898323l0 0c-0.0289917 -0.01449585 -0.063776016 -0.0025157928 -0.07769203 0.026759148l-3.288189 6.917609c-0.0066833496 0.014057159 -0.00756073 0.030305862 -0.0024414062 0.045167923c0.0051193237 0.014863968 0.015815735 0.027124405 0.02973938 0.034086227l0.20997047 0.10498428c0.028993607 0.014497757 0.063776016 0.0025157928 0.07769203 -0.026758194l3.288189 -6.917609c0.013916016 -0.02927494 0.0016937256 -0.0647583 -0.027297974 -0.07925415z" fill-rule="nonzero"></path><path fill="#ffb4b3" d="m22.163698 23.160065l0 0c0.118867874 -0.02029419 0.2310009 0.059728622 0.25045776 0.17873573l1.2838707 7.852503c0.009342194 0.05714798 -0.004371643 0.11582756 -0.0381279 0.1631298c-0.033756256 0.047302246 -0.08478737 0.079351425 -0.1418705 0.08909607l-0.8608837 0.14698029c-0.11886597 0.02029419 -0.2310009 -0.059726715 -0.25045776 -0.17873383l-1.2838688 -7.852503c-0.019456863 -0.11900711 0.061130524 -0.2319336 0.17999649 -0.25222778z" fill-rule="nonzero"></path><path stroke="#ffb4b3" stroke-width="1.0" stroke-linejoin="round" stroke-linecap="butt" d="m22.163698 23.160065l0 0c0.118867874 -0.02029419 0.2310009 0.059728622 0.25045776 0.17873573l1.2838707 7.852503c0.009342194 0.05714798 -0.004371643 0.11582756 -0.0381279 0.1631298c-0.033756256 0.047302246 -0.08478737 0.079351425 -0.1418705 0.08909607l-0.8608837 0.14698029c-0.11886597 0.02029419 -0.2310009 -0.059726715 -0.25045776 -0.17873383l-1.2838688 -7.852503c-0.019456863 -0.11900711 0.061130524 -0.2319336 0.17999649 -0.25222778z" fill-rule="nonzero"></path><path fill="#ffb4b3" d="m18.88704 23.160065l0 0c-0.11886597 -0.02029419 -0.2310009 0.059728622 -0.25045776 0.17873573l-1.2838688 7.852503c-0.009344101 0.05714798 0.0043697357 0.11582756 0.03812599 0.1631298c0.033756256 0.047302246 0.084789276 0.079351425 0.1418705 0.08909607l0.8608837 0.14698029c0.11886597 0.02029419 0.2310009 -0.059726715 0.25045776 -0.17873383l1.2838688 -7.852503c0.01945877 -0.11900711 -0.061128616 -0.2319336 -0.17999649 -0.25222778z" fill-rule="nonzero"></path><path stroke="#ffb4b3" stroke-width="1.0" stroke-linejoin="round" stroke-linecap="butt" d="m18.88704 23.160065l0 0c-0.11886597 -0.02029419 -0.2310009 0.059728622 -0.25045776 0.17873573l-1.2838688 7.852503c-0.009344101 0.05714798 0.0043697357 0.11582756 0.03812599 0.1631298c0.033756256 0.047302246 0.084789276 0.079351425 0.1418705 0.08909607l0.8608837 0.14698029c0.11886597 0.02029419 0.2310009 -0.059726715 0.25045776 -0.17873383l1.2838688 -7.852503c0.01945877 -0.11900711 -0.061128616 -0.2319336 -0.17999649 -0.25222778z" fill-rule="nonzero"></path></g></svg>

