<?xml version="1.0" standalone="yes"?>

<svg version="1.1" viewBox="0.0 0.0 40.0 50.0" fill="none" stroke="none" stroke-linecap="square" stroke-miterlimit="10" xmlns="http://www.w3.org/2000/svg" xmlns:xlink="http://www.w3.org/1999/xlink"><clipPath id="p.0"><path d="m0 0l40.0 0l0 50.0l-40.0 0l0 -50.0z" clip-rule="nonzero"></path></clipPath><g clip-path="url(#p.0)"><path fill="#000000" fill-opacity="0.0" d="m0 0l40.0 0l0 50.0l-40.0 0z" fill-rule="nonzero"></path><path fill="#fe2e2e" d="m0.6824147 6.8583956l0 0c0 -3.525416 2.857914 -6.38333 6.38333 -6.38333l26.004995 0l0 0c1.6929626 0 3.3165894 0.67252743 4.513695 1.869634c1.1971054 1.1971066 1.8696327 2.8207314 1.8696327 4.5136957l0 25.532555c0 3.5254135 -2.857914 6.3833275 -6.3833275 6.3833275l-26.004995 0c-3.5254157 0 -6.38333 -2.857914 -6.38333 -6.3833275z" fill-rule="nonzero"></path><path stroke="#000000" stroke-width="1.0" stroke-linejoin="round" stroke-linecap="butt" d="m0.6824147 6.8583956l0 0c0 -3.525416 2.857914 -6.38333 6.38333 -6.38333l26.004995 0l0 0c1.6929626 0 3.3165894 0.67252743 4.513695 1.869634c1.1971054 1.1971066 1.8696327 2.8207314 1.8696327 4.5136957l0 25.532555c0 3.5254135 -2.857914 6.3833275 -6.3833275 6.3833275l-26.004995 0c-3.5254157 0 -6.38333 -2.857914 -6.38333 -6.3833275z" fill-rule="nonzero"></path><path fill="#000000" d="m10.8359585 40.133858l18.464567 0l-9.232285 9.866142z" fill-rule="nonzero"></path><path fill="#ffffff" d="m3.4129913 20.709711l0 0c-0.018052101 -2.6137257 1.0075991 -5.126605 2.8494327 -6.981203c1.8418336 -1.854598 4.347569 -2.8975801 6.9613566 -2.8975801l0 9.811023z" fill-rule="nonzero"></path><path fill="#fe2e2e" d="m4.8896995 18.82986l0 0c-0.016042233 -1.6836548 0.75830173 -3.303049 2.1510096 -4.4984303c1.3927073 -1.1953821 3.288446 -1.8677578 5.26607 -1.8677578l0 6.3149605z" fill-rule="nonzero"></path><path fill="#ffffff" d="m3.4127572 20.877323l0 0c0 -0.6842079 0.55466104 -1.2388687 1.2388699 -1.2388687l7.349032 0c0.32856846 0 0.6436806 0.13052368 0.87601376 0.3628559c0.23233223 0.23233414 0.3628559 0.5474453 0.3628559 0.8760128l0 4.955332c0 0.6842098 -0.5546608 1.2388706 -1.2388697 1.2388706l-7.349032 0l0 0c-0.68420887 0 -1.2388699 -0.5546608 -1.2388699 -1.2388706z" fill-rule="nonzero"></path><path fill="#ffffff" d="m12.061647 23.06974l23.338583 0l0 4.031496l-23.338583 0z" fill-rule="nonzero"></path><path fill="#ffffff" d="m4.7814045 27.148594l0 0c0 -1.9656105 1.5934434 -3.5590534 3.5590553 -3.5590534l0 0c0.94392014 0 1.8491793 0.37496948 2.516632 1.0424213c0.66745186 0.66745377 1.0424232 1.572712 1.0424232 2.516632l0 0c0 1.9656124 -1.5934439 3.5590553 -3.5590553 3.5590553l0 0c-1.9656119 0 -3.5590553 -1.5934429 -3.5590553 -3.5590553z" fill-rule="nonzero"></path><path stroke="#fe2e2e" stroke-width="1.0" stroke-linejoin="round" stroke-linecap="butt" d="m4.7814045 27.148594l0 0c0 -1.9656105 1.5934434 -3.5590534 3.5590553 -3.5590534l0 0c0.94392014 0 1.8491793 0.37496948 2.516632 1.0424213c0.66745186 0.66745377 1.0424232 1.572712 1.0424232 2.516632l0 0c0 1.9656124 -1.5934439 3.5590553 -3.5590553 3.5590553l0 0c-1.9656119 0 -3.5590553 -1.5934429 -3.5590553 -3.5590553z" fill-rule="nonzero"></path><path fill="#ffffff" d="m26.021849 27.148594l0 0c0 -1.9656105 1.5934429 -3.5590534 3.5590553 -3.5590534l0 0c0.94392014 0 1.8491802 0.37496948 2.5166302 1.0424213c0.66745377 0.66745377 1.0424232 1.572712 1.0424232 2.516632l0 0c0 1.9656124 -1.593441 3.5590553 -3.5590534 3.5590553l0 0c-1.9656124 0 -3.5590553 -1.5934429 -3.5590553 -3.5590553z" fill-rule="nonzero"></path><path stroke="#fe2e2e" stroke-width="1.0" stroke-linejoin="round" stroke-linecap="butt" d="m26.021849 27.148594l0 0c0 -1.9656105 1.5934429 -3.5590534 3.5590553 -3.5590534l0 0c0.94392014 0 1.8491802 0.37496948 2.5166302 1.0424213c0.66745377 0.66745377 1.0424232 1.572712 1.0424232 2.516632l0 0c0 1.9656124 -1.593441 3.5590553 -3.5590534 3.5590553l0 0c-1.9656124 0 -3.5590553 -1.5934429 -3.5590553 -3.5590553z" fill-rule="nonzero"></path><path fill="#fe2e2e" d="m17.39895 10.832021l12.661417 0l0 11.307086l-12.661417 0z" fill-rule="nonzero"></path><path stroke="#ffffff" stroke-width="1.0" stroke-linejoin="round" stroke-linecap="butt" stroke-dasharray="4.0,3.0" d="m17.39895 10.832021l12.661417 0l0 11.307086l-12.661417 0z" fill-rule="nonzero"></path></g></svg>

