<?xml version="1.0" standalone="yes"?>

<svg version="1.1" viewBox="0.0 0.0 40.0 50.0" fill="none" stroke="none" stroke-linecap="square" stroke-miterlimit="10" xmlns="http://www.w3.org/2000/svg" xmlns:xlink="http://www.w3.org/1999/xlink"><clipPath id="p.0"><path d="m0 0l40.0 0l0 50.0l-40.0 0l0 -50.0z" clip-rule="nonzero"></path></clipPath><g clip-path="url(#p.0)"><path fill="#000000" fill-opacity="0.0" d="m0 0l40.0 0l0 50.0l-40.0 0z" fill-rule="nonzero"></path><path fill="#fe2e2e" d="m0.6824147 6.8583956l0 0c0 -3.525416 2.857914 -6.38333 6.38333 -6.38333l26.004995 0l0 0c1.6929626 0 3.3165894 0.67252743 4.513695 1.869634c1.1971054 1.1971066 1.8696327 2.8207314 1.8696327 4.5136957l0 25.532555c0 3.5254135 -2.857914 6.3833275 -6.3833275 6.3833275l-26.004995 0c-3.5254157 0 -6.38333 -2.857914 -6.38333 -6.3833275z" fill-rule="nonzero"></path><path stroke="#000000" stroke-width="1.0" stroke-linejoin="round" stroke-linecap="butt" d="m0.6824147 6.8583956l0 0c0 -3.525416 2.857914 -6.38333 6.38333 -6.38333l26.004995 0l0 0c1.6929626 0 3.3165894 0.67252743 4.513695 1.869634c1.1971054 1.1971066 1.8696327 2.8207314 1.8696327 4.5136957l0 25.532555c0 3.5254135 -2.857914 6.3833275 -6.3833275 6.3833275l-26.004995 0c-3.5254157 0 -6.38333 -2.857914 -6.38333 -6.3833275z" fill-rule="nonzero"></path><path fill="#000000" d="m10.8359585 40.133858l18.464567 0l-9.232285 9.866142z" fill-rule="nonzero"></path><path fill="#ffffff" d="m30.535725 14.28084l0 0c0 -1.3307018 1.0787468 -2.4094486 2.4094505 -2.4094486l0 0c0.6390228 0 1.2518768 0.2538519 1.7037354 0.70571136c0.45185852 0.45185852 0.70571136 1.0647116 0.70571136 1.7037373l0 0c0 1.3307018 -1.0787468 2.4094486 -2.4094467 2.4094486l0 0c-1.3307037 0 -2.4094505 -1.0787468 -2.4094505 -2.4094486z" fill-rule="nonzero"></path><path fill="#ffffff" d="m30.236221 18.182734l0 0c0 -0.47836494 0.3877926 -0.86615753 0.86615753 -0.86615753l3.4645348 0l0 0c0.22971725 0 0.45002747 0.09125519 0.6124649 0.25369072c0.16243744 0.16243744 0.25369263 0.38274765 0.25369263 0.6124668l0 6.299179c0 0.47836685 -0.3877945 0.86615944 -0.86615753 0.86615944l-3.4645348 0c-0.47836494 0 -0.86615753 -0.3877926 -0.86615753 -0.86615944z" fill-rule="nonzero"></path><path fill="#ffffff" d="m14.633407 25.908136l0 0c0 -1.3307018 1.0787468 -2.4094486 2.4094477 -2.4094486l0 0c0.63902664 0 1.2518787 0.25385094 1.7037392 0.70571136c0.45185852 0.45185852 0.70571136 1.0647125 0.70571136 1.7037373l0 0c0 1.3307018 -1.0787487 2.4094486 -2.4094505 2.4094486l0 0c-1.3307009 0 -2.4094477 -1.0787468 -2.4094477 -2.4094486z" fill-rule="nonzero"></path><path fill="#ffffff" d="m14.333902 29.810032l0 0c0 -0.47836685 0.3877926 -0.86615944 0.8661585 -0.86615944l3.464532 0l0 0c0.22972107 0 0.45003128 0.09125519 0.6124668 0.25369072c0.16243744 0.16243744 0.25369263 0.38274765 0.25369263 0.6124687l0 6.2991753c0 0.47836685 -0.3877926 0.86616135 -0.86615944 0.86616135l-3.464532 0c-0.4783659 0 -0.8661585 -0.3877945 -0.8661585 -0.86616135z" fill-rule="nonzero"></path><path fill="#ffffff" d="m5.1446486 14.246331l0 0c0 -1.3307018 1.0787468 -2.4094486 2.4094486 -2.4094486l0 0c0.6390257 0 1.2518787 0.2538519 1.7037382 0.70571136c0.45185852 0.45185947 0.7057104 1.0647116 0.7057104 1.7037373l0 0c0 1.3307018 -1.0787468 2.4094496 -2.4094486 2.4094496l0 0c-1.3307018 0 -2.4094486 -1.0787477 -2.4094486 -2.4094496z" fill-rule="nonzero"></path><path fill="#ffffff" d="m4.8451443 18.148226l0 0c0 -0.47836685 0.3877926 -0.86615944 0.86615896 -0.86615944l3.4645324 0l0 0c0.22972012 0 0.45003033 0.091257095 0.6124668 0.25369263c0.16243649 0.16243553 0.25369263 0.38274765 0.25369263 0.6124668l0 6.299179c0 0.47836494 -0.3877926 0.86615753 -0.86615944 0.86615753l-3.4645324 0c-0.47836637 0 -0.86615896 -0.3877926 -0.86615896 -0.86615753z" fill-rule="nonzero"></path><path fill="#000000" d="m21.564476 6.2125983l0 0c0 -1.3307018 1.0787468 -2.4094486 2.4094486 -2.4094486l0 0c0.63902473 0 1.2518787 0.2538519 1.7037373 0.7057109c0.45185852 0.45185947 0.70571136 1.064712 0.70571136 1.7037377l0 0c0 1.3307018 -1.0787468 2.409449 -2.4094486 2.409449l0 0c-1.3307018 0 -2.4094486 -1.0787473 -2.4094486 -2.409449z" fill-rule="nonzero"></path><path fill="#000000" d="m21.26497 10.114493l0 0c0 -0.47836685 0.3877926 -0.86615944 0.86615944 -0.86615944l3.4645329 0l0 0c0.22971916 0 0.45002937 0.09125614 0.6124668 0.25369167c0.16243553 0.16243649 0.25369072 0.38274765 0.25369072 0.61246777l0 6.299178c0 0.47836494 -0.3877926 0.86615753 -0.86615753 0.86615753l-3.4645329 0c-0.47836685 0 -0.86615944 -0.3877926 -0.86615944 -0.86615753z" fill-rule="nonzero"></path><path fill="#ffffff" d="m12.160105 22.748032l3.4850397 -8.346457l13.940158 0l-3.4850407 8.346457z" fill-rule="nonzero"></path></g></svg>

