<?xml version="1.0" standalone="yes"?>

<svg version="1.1" viewBox="0.0 0.0 40.0 50.0" fill="none" stroke="none" stroke-linecap="square" stroke-miterlimit="10" xmlns="http://www.w3.org/2000/svg" xmlns:xlink="http://www.w3.org/1999/xlink"><clipPath id="p.0"><path d="m0 0l40.0 0l0 50.0l-40.0 0l0 -50.0z" clip-rule="nonzero"></path></clipPath><g clip-path="url(#p.0)"><path fill="#000000" fill-opacity="0.0" d="m0 0l40.0 0l0 50.0l-40.0 0z" fill-rule="nonzero"></path><path fill="#fe2e2e" d="m0.6824147 6.8583956l0 0c0 -3.525416 2.857914 -6.38333 6.38333 -6.38333l26.004995 0l0 0c1.6929626 0 3.3165894 0.67252743 4.513695 1.869634c1.1971054 1.1971066 1.8696327 2.8207314 1.8696327 4.5136957l0 25.532555c0 3.5254135 -2.857914 6.3833275 -6.3833275 6.3833275l-26.004995 0c-3.5254157 0 -6.38333 -2.857914 -6.38333 -6.3833275z" fill-rule="nonzero"></path><path stroke="#000000" stroke-width="1.0" stroke-linejoin="round" stroke-linecap="butt" d="m0.6824147 6.8583956l0 0c0 -3.525416 2.857914 -6.38333 6.38333 -6.38333l26.004995 0l0 0c1.6929626 0 3.3165894 0.67252743 4.513695 1.869634c1.1971054 1.1971066 1.8696327 2.8207314 1.8696327 4.5136957l0 25.532555c0 3.5254135 -2.857914 6.3833275 -6.3833275 6.3833275l-26.004995 0c-3.5254157 0 -6.38333 -2.857914 -6.38333 -6.3833275z" fill-rule="nonzero"></path><path fill="#ffffff" d="m9.735264 16.95225l0 0c0 -1.7236004 1.2476454 -3.1208544 2.7866936 -3.1208544l0 0c0.7390766 0 1.4478827 0.32880306 1.9704895 0.9140768c0.5226059 0.58527374 0.8162031 1.379076 0.8162031 2.2067776l0 0c0 1.7236004 -1.2476454 3.1208553 -2.7866926 3.1208553l0 0c-1.5390482 0 -2.7866936 -1.397255 -2.7866936 -3.1208553z" fill-rule="nonzero"></path><path fill="#ffffff" d="m10.736515 36.097374l0 0c-3.7786818 -0.94791794 -6.297545 -6.0348034 -5.6268764 -11.363569c0.6706686 -5.328768 4.2770553 -8.882752 8.056292 -7.93923l-1.2118855 9.652105z" fill-rule="nonzero"></path><path fill="#ffffff" d="m14.548036 36.097374l0 0c3.7786818 -0.94791794 6.2975454 -6.0348034 5.626876 -11.363569c-0.67066765 -5.328768 -4.277055 -8.882752 -8.05629 -7.93923l1.2118845 9.652105z" fill-rule="nonzero"></path><path fill="#000000" fill-opacity="0.0" d="m10.551468 14.745472l-2.198268 -2.7712154" fill-rule="nonzero"></path><path stroke="#ffffff" stroke-width="1.0" stroke-linejoin="round" stroke-linecap="butt" d="m10.551468 14.745472l-2.198268 -2.7712154" fill-rule="nonzero"></path><path fill="#000000" fill-opacity="0.0" d="m16.779356 11.978922l-2.198268 2.7712164" fill-rule="nonzero"></path><path stroke="#ffffff" stroke-width="1.0" stroke-linejoin="round" stroke-linecap="butt" d="m16.779356 11.978922l-2.198268 2.7712164" fill-rule="nonzero"></path><path fill="#000000" fill-opacity="0.0" d="m4.176573 16.645937c0 1.8582687 1.2545667 2.787403 2.5091338 3.7165375c1.2545667 0.92913437 2.5091338 1.8582687 2.5091338 3.7165375" fill-rule="nonzero"></path><path stroke="#ffffff" stroke-width="1.0" stroke-linejoin="round" stroke-linecap="butt" d="m4.176573 16.645937c0 1.8582687 1.2545667 2.787403 2.5091338 3.7165375c1.2545667 0.92913437 2.5091338 1.8582687 2.5091338 3.7165375" fill-rule="nonzero"></path><path fill="#000000" fill-opacity="0.0" d="m16.249956 24.096468c0 -1.8582687 1.2545681 -2.787403 2.5091343 -3.7165375c1.2545681 -0.92913437 2.5091343 -1.8582687 2.5091343 -3.7165375" fill-rule="nonzero"></path><path stroke="#ffffff" stroke-width="1.0" stroke-linejoin="round" stroke-linecap="butt" d="m16.249956 24.096468c0 -1.8582687 1.2545681 -2.787403 2.5091343 -3.7165375c1.2545681 -0.92913437 2.5091343 -1.8582687 2.5091343 -3.7165375" fill-rule="nonzero"></path><path fill="#000000" fill-opacity="0.0" d="m16.249956 28.812994c0 1.8582687 1.2545681 2.787403 2.5091343 3.7165356c1.2545681 0.92913437 2.5091343 1.8582687 2.5091343 3.7165375" fill-rule="nonzero"></path><path stroke="#ffffff" stroke-width="1.0" stroke-linejoin="round" stroke-linecap="butt" d="m16.249956 28.812994c0 1.8582687 1.2545681 2.787403 2.5091343 3.7165356c1.2545681 0.92913437 2.5091343 1.8582687 2.5091343 3.7165375" fill-rule="nonzero"></path><path fill="#000000" fill-opacity="0.0" d="m9.202528 28.814222c0 1.8582687 -1.2545671 2.787403 -2.5091343 3.7165356c-1.2545667 0.92913437 -2.5091338 1.8582687 -2.5091338 3.7165375" fill-rule="nonzero"></path><path stroke="#ffffff" stroke-width="1.0" stroke-linejoin="round" stroke-linecap="butt" d="m9.202528 28.814222c0 1.8582687 -1.2545671 2.787403 -2.5091343 3.7165356c-1.2545667 0.92913437 -2.5091338 1.8582687 -2.5091338 3.7165375" fill-rule="nonzero"></path><path fill="#000000" fill-opacity="0.0" d="m8.349787 22.727833c0 1.8582687 -1.2545676 2.787403 -2.5091343 3.7165375c-1.2545671 0.92913437 -2.5091338 1.8582668 -2.5091338 3.7165356" fill-rule="nonzero"></path><path stroke="#ffffff" stroke-width="1.0" stroke-linejoin="round" stroke-linecap="butt" d="m8.349787 22.727833c0 1.8582687 -1.2545676 2.787403 -2.5091343 3.7165375c-1.2545671 0.92913437 -2.5091338 1.8582668 -2.5091338 3.7165356" fill-rule="nonzero"></path><path fill="#000000" fill-opacity="0.0" d="m16.776215 22.696253c0 1.8582687 1.2545662 2.787403 2.5091343 3.7165375c1.2545662 0.92913437 2.5091324 1.8582687 2.5091324 3.7165356" fill-rule="nonzero"></path><path stroke="#ffffff" stroke-width="1.0" stroke-linejoin="round" stroke-linecap="butt" d="m16.776215 22.696253c0 1.8582687 1.2545662 2.787403 2.5091343 3.7165375c1.2545662 0.92913437 2.5091324 1.8582687 2.5091324 3.7165356" fill-rule="nonzero"></path><path fill="#000000" fill-opacity="0.0" d="m29.078081 1.2134116l-0.081912994 23.518658" fill-rule="nonzero"></path><path stroke="#ffffff" stroke-width="2.0" stroke-linejoin="round" stroke-linecap="butt" d="m29.078081 1.2134116l-0.081912994 23.518658" fill-rule="nonzero"></path><path fill="#ffffff" d="m21.796694 36.671185l14.398951 0l-2.8797913 -11.939116l-8.639368 0z" fill-rule="nonzero"></path><path fill="#000000" fill-opacity="0.0" d="m22.404593 29.773634l13.46084 -0.05482292" fill-rule="nonzero"></path><path stroke="#fe2e2e" stroke-width="1.0" stroke-linejoin="round" stroke-linecap="butt" d="m22.404593 29.773634l13.46084 -0.05482292" fill-rule="nonzero"></path><path fill="#000000" d="m10.8359585 40.133858l18.464567 0l-9.232285 9.866142z" fill-rule="nonzero"></path></g></svg>

