<?xml version="1.0" standalone="yes"?>

<svg version="1.1" viewBox="0.0 0.0 40.0 50.0" fill="none" stroke="none" stroke-linecap="square" stroke-miterlimit="10" xmlns="http://www.w3.org/2000/svg" xmlns:xlink="http://www.w3.org/1999/xlink"><clipPath id="p.0"><path d="m0 0l40.0 0l0 50.0l-40.0 0l0 -50.0z" clip-rule="nonzero"></path></clipPath><g clip-path="url(#p.0)"><path fill="#000000" fill-opacity="0.0" d="m0 0l40.0 0l0 50.0l-40.0 0z" fill-rule="nonzero"></path><path fill="#fe2e2e" d="m0.6824147 6.8583956l0 0c0 -3.525416 2.857914 -6.38333 6.38333 -6.38333l26.004995 0l0 0c1.6929626 0 3.3165894 0.67252743 4.513695 1.869634c1.1971054 1.1971066 1.8696327 2.8207314 1.8696327 4.5136957l0 25.532555c0 3.5254135 -2.857914 6.3833275 -6.3833275 6.3833275l-26.004995 0c-3.5254157 0 -6.38333 -2.857914 -6.38333 -6.3833275z" fill-rule="nonzero"></path><path stroke="#000000" stroke-width="1.0" stroke-linejoin="round" stroke-linecap="butt" d="m0.6824147 6.8583956l0 0c0 -3.525416 2.857914 -6.38333 6.38333 -6.38333l26.004995 0l0 0c1.6929626 0 3.3165894 0.67252743 4.513695 1.869634c1.1971054 1.1971066 1.8696327 2.8207314 1.8696327 4.5136957l0 25.532555c0 3.5254135 -2.857914 6.3833275 -6.3833275 6.3833275l-26.004995 0c-3.5254157 0 -6.38333 -2.857914 -6.38333 -6.3833275z" fill-rule="nonzero"></path><path fill="#000000" d="m10.8359585 40.133858l18.464567 0l-9.232285 9.866142z" fill-rule="nonzero"></path><path fill="#ffffff" d="m23.83065 6.9173274l5.794447 -3.116534l-2.3031826 6.1620264l-5.794447 3.1165342z" fill-rule="nonzero"></path><path fill="#ffffff" d="m23.268019 14.608372l3.576416 3.119772l-14.005689 16.048235l-3.576416 -3.1197739z" fill-rule="nonzero"></path><path fill="#ffffff" d="m9.088231 30.856094l0 0c0.79748917 -0.91379356 2.2445908 -0.9561844 3.2321901 -0.09468269l0 0c0.9876003 0.8615017 1.141715 2.300661 0.34422588 3.2144566l0 0c-0.7974901 0.91379166 -2.2445908 0.9561806 -3.232191 0.094680786l0 0c-0.9875994 -0.8615036 -1.141715 -2.300663 -0.34422493 -3.2144547z" fill-rule="nonzero"></path><path fill="#fe2e2e" d="m9.957405 31.363739l0 0c0.4482622 -0.51363564 1.2548447 -0.54341316 1.8015518 -0.066511154l0 0c0.26253796 0.22901726 0.42881012 0.5466385 0.4622383 0.8829899c0.033428192 0.3363533 -0.068725586 0.6638832 -0.283988 0.9105377l0 0c-0.4482622 0.51363754 -1.2548447 0.54341507 -1.8015518 0.06650925l0 0c-0.5467062 -0.476902 -0.6265125 -1.2798901 -0.17825031 -1.7935257z" fill-rule="nonzero"></path><path fill="#ffffff" d="m30.857563 13.047032l5.794445 -3.1165333l-2.3031807 6.1620264l-5.794447 3.1165333z" fill-rule="nonzero"></path><path fill="#ffffff" d="m29.640413 3.8148901l2.448141 2.1355588l-8.4562645 9.6895l-2.448141 -2.135559z" fill-rule="nonzero"></path><path fill="#ffffff" d="m34.40696 7.9707856l2.23526 1.9498582l-8.4562645 9.6895l-2.23526 -1.9498577z" fill-rule="nonzero"></path><path fill="#ffffff" d="m26.895107 10.9745865l3.0442104 2.6555204l-3.5486107 4.0661287l-3.0442104 -2.6555204z" fill-rule="nonzero"></path><path fill="#ffffff" d="m16.42173 20.783922l0 0c0.8159294 1.0606232 2.6604404 1.0109138 4.119829 -0.11102867c1.4593887 -1.1219444 1.9810143 -2.891264 1.1650848 -3.9518871l10.496588 13.644461c0.8159294 1.0606232 0.2943039 2.8299446 -1.1650848 3.9518852c-1.4593887 1.1219444 -3.3038979 1.1716537 -4.119829 0.11103058z" fill-rule="nonzero"></path><path fill="#ffffff" d="m16.42173 20.783922l0 0c-0.8159294 -1.0606232 -0.2943039 -2.8299427 1.1650848 -3.9518852c1.4593887 -1.1219435 3.3038979 -1.1716537 4.119829 -0.11103058l0 0c0.8159294 1.0606232 0.2943039 2.8299427 -1.1650848 3.9518871c-1.4593887 1.1219425 -3.3038998 1.1716518 -4.119829 0.11102867z" fill-rule="nonzero"></path><path fill="#000000" fill-opacity="0.0" d="m21.706644 16.721006l0 0c0.8159294 1.0606232 0.2943039 2.8299427 -1.1650848 3.9518871c-1.4593887 1.1219425 -3.3038998 1.1716518 -4.119829 0.11102867l0 0c-0.8159294 -1.0606232 -0.2943039 -2.8299427 1.1650848 -3.9518852c1.4593887 -1.1219435 3.3038979 -1.1716537 4.119829 -0.11103058l10.496588 13.644461c0.8159294 1.0606232 0.2943039 2.8299446 -1.1650848 3.9518852c-1.4593887 1.1219444 -3.3038979 1.1716537 -4.119829 0.11103058l-10.496588 -13.644461" fill-rule="nonzero"></path><path fill="#ffffff" d="m10.807061 9.918239l0 0c0.30041885 0.39051247 0.9550228 0.39106846 1.4620991 0.0012407303c0.5070753 -0.38982773 0.67460346 -1.022419 0.3741846 -1.4129324l6.849989 8.904265c0.30041885 0.39051247 0.1328907 1.0231037 -0.37418556 1.4129314c-0.50707436 0.38982773 -1.1616783 0.3892727 -1.4620972 -0.0012397766z" fill-rule="nonzero"></path><path fill="#ffffff" d="m10.807061 9.918239l0 0c-0.30041885 -0.39051342 -0.13288975 -1.0231047 0.37418556 -1.4129324c0.5070753 -0.38982773 1.1616793 -0.38927174 1.4620981 0.0012407303l0 0c0.30041885 0.39051342 0.1328907 1.0231047 -0.3741846 1.4129324c-0.50707626 0.38982773 -1.1616802 0.38927174 -1.4620991 -0.0012407303z" fill-rule="nonzero"></path><path fill="#000000" fill-opacity="0.0" d="m12.643345 8.506547l0 0c0.30041885 0.39051342 0.1328907 1.0231047 -0.3741846 1.4129324c-0.50707626 0.38982773 -1.1616802 0.38927174 -1.4620991 -0.0012407303l0 0c-0.30041885 -0.39051342 -0.13288975 -1.0231047 0.37418556 -1.4129324c0.5070753 -0.38982773 1.1616793 -0.38927174 1.4620981 0.0012407303l6.849989 8.904265c0.30041885 0.39051247 0.1328907 1.0231037 -0.37418556 1.4129314c-0.50707436 0.38982773 -1.1616783 0.3892727 -1.4620972 -0.0012397766l-6.84999 -8.904265" fill-rule="nonzero"></path><path fill="#ffffff" d="m7.799384 14.167617l0 0c0.29016495 -0.22307205 -0.19825792 -1.3445759 -1.0909243 -2.5049477c-0.89266586 -1.1603718 -1.8515406 -1.9202032 -2.141706 -1.6971312l8.085848 -6.216209c0.29016495 -0.22307229 1.2490396 0.5367594 2.1417055 1.6971312c0.89266586 1.1603723 1.3810902 2.2818751 1.0909243 2.5049477z" fill-rule="nonzero"></path><path fill="#ffffff" d="m7.799384 14.167617l0 0c-0.29016542 0.22307205 -1.2490401 -0.5367594 -2.141706 -1.6971312c-0.89266634 -1.1603718 -1.3810897 -2.2818756 -1.0909243 -2.5049477l0 0c0.29016542 -0.22307205 1.2490401 0.5367594 2.141706 1.6971312c0.89266634 1.1603718 1.3810892 2.2818756 1.0909243 2.5049477z" fill-rule="nonzero"></path><path fill="#000000" fill-opacity="0.0" d="m4.566754 9.965538l0 0c0.29016542 -0.22307205 1.2490401 0.5367594 2.141706 1.6971312c0.89266634 1.1603718 1.3810892 2.2818756 1.0909243 2.5049477l0 0c-0.29016542 0.22307205 -1.2490401 -0.5367594 -2.141706 -1.6971312c-0.89266634 -1.1603718 -1.3810897 -2.2818756 -1.0909243 -2.5049477l8.085848 -6.216209c0.29016495 -0.22307229 1.2490396 0.5367594 2.1417055 1.6971312c0.89266586 1.1603723 1.3810902 2.2818751 1.0909243 2.5049477l-8.085848 6.216209" fill-rule="nonzero"></path><path fill="#ffffff" d="m1.4064615 10.397887l3.2470868 -2.4962835l5.3338394 6.9334297l-3.247087 2.4962845z" fill-rule="nonzero"></path><path fill="#ffffff" d="m11.729176 11.109334l0 0c-1.7654953 -2.2949572 -1.3469143 -5.577469 0.93492603 -7.331694c2.2818403 -1.754225 5.562854 -1.3158746 7.328349 0.97908354l0 0c-1.9439468 -0.26169538 -3.9074936 0.26093864 -5.457633 1.4526501c-1.5501413 1.1917114 -2.559554 2.9546185 -2.8056421 4.8999605z" fill-rule="nonzero"></path></g></svg>

