<?xml version="1.0" standalone="yes"?>

<svg version="1.1" viewBox="0.0 0.0 40.0 50.0" fill="none" stroke="none" stroke-linecap="square" stroke-miterlimit="10" xmlns="http://www.w3.org/2000/svg" xmlns:xlink="http://www.w3.org/1999/xlink"><clipPath id="p.0"><path d="m0 0l40.0 0l0 50.0l-40.0 0l0 -50.0z" clip-rule="nonzero"></path></clipPath><g clip-path="url(#p.0)"><path fill="#000000" fill-opacity="0.0" d="m0 0l40.0 0l0 50.0l-40.0 0z" fill-rule="nonzero"></path><path fill="#fe2e2e" d="m0.6824147 6.8583956l0 0c0 -3.525416 2.857914 -6.38333 6.38333 -6.38333l26.004995 0l0 0c1.6929626 0 3.3165894 0.67252743 4.513695 1.869634c1.1971054 1.1971066 1.8696327 2.8207314 1.8696327 4.5136957l0 25.532555c0 3.5254135 -2.857914 6.3833275 -6.3833275 6.3833275l-26.004995 0c-3.5254157 0 -6.38333 -2.857914 -6.38333 -6.3833275z" fill-rule="nonzero"></path><path stroke="#000000" stroke-width="1.0" stroke-linejoin="round" stroke-linecap="butt" d="m0.6824147 6.8583956l0 0c0 -3.525416 2.857914 -6.38333 6.38333 -6.38333l26.004995 0l0 0c1.6929626 0 3.3165894 0.67252743 4.513695 1.869634c1.1971054 1.1971066 1.8696327 2.8207314 1.8696327 4.5136957l0 25.532555c0 3.5254135 -2.857914 6.3833275 -6.3833275 6.3833275l-26.004995 0c-3.5254157 0 -6.38333 -2.857914 -6.38333 -6.3833275z" fill-rule="nonzero"></path><path fill="#000000" d="m10.8359585 40.133858l18.464567 0l-9.232285 9.866142z" fill-rule="nonzero"></path><path fill="#fe2e2e" d="m15.119165 21.447744l9.070776 0l2.2677612 2.2677612l0 12.944838l0 0l-13.606299 0l0 0l0 -12.944838z" fill-rule="nonzero"></path><path stroke="#ffffff" stroke-width="1.0" stroke-linejoin="round" stroke-linecap="butt" d="m15.119165 21.447744l9.070776 0l2.2677612 2.2677612l0 12.944838l0 0l-13.606299 0l0 0l0 -12.944838z" fill-rule="nonzero"></path><path fill="#ffffff" d="m23.545895 21.442434l-3.8897629 12.503939l-3.8897648 -12.503939z" fill-rule="nonzero"></path><path fill="#fe2e2e" d="m12.1010475 14.049922l0 0c0 -4.287817 3.5676203 -7.7637796 7.968504 -7.7637796l0 0c2.1133785 0 4.1401997 0.8179674 5.6345825 2.2739582c1.4943848 1.4559917 2.3339214 3.4307394 2.3339214 5.4898214l0 0c0 4.287818 -3.5676212 7.7637796 -7.968504 7.7637796l0 0c-4.4008837 0 -7.968504 -3.4759617 -7.968504 -7.7637796z" fill-rule="nonzero"></path><path stroke="#ffffff" stroke-width="1.0" stroke-linejoin="round" stroke-linecap="butt" d="m12.1010475 14.049922l0 0c0 -4.287817 3.5676203 -7.7637796 7.968504 -7.7637796l0 0c2.1133785 0 4.1401997 0.8179674 5.6345825 2.2739582c1.4943848 1.4559917 2.3339214 3.4307394 2.3339214 5.4898214l0 0c0 4.287818 -3.5676212 7.7637796 -7.968504 7.7637796l0 0c-4.4008837 0 -7.968504 -3.4759617 -7.968504 -7.7637796z" fill-rule="nonzero"></path><path fill="#fe2e2e" d="m13.443618 4.3070264l0 0c0 0.48487997 2.9048605 0.8779526 6.4881887 0.8779526c3.5833282 0 6.4881897 -0.3930726 6.4881897 -0.8779526l0 5.267716c0 0.48488045 -2.9048615 0.8779535 -6.4881897 0.8779535c-3.5833282 0 -6.4881887 -0.39307308 -6.4881887 -0.8779535z" fill-rule="nonzero"></path><path fill="#fe8181" d="m13.443618 4.3070264l0 0c0 -0.48487997 2.9048605 -0.8779528 6.4881887 -0.8779528c3.5833282 0 6.4881897 0.39307284 6.4881897 0.8779528l0 0c0 0.48487997 -2.9048615 0.8779526 -6.4881897 0.8779526c-3.5833282 0 -6.4881887 -0.3930726 -6.4881887 -0.8779526z" fill-rule="nonzero"></path><path fill="#000000" fill-opacity="0.0" d="m26.419996 4.3070264l0 0c0 0.48487997 -2.9048615 0.8779526 -6.4881897 0.8779526c-3.5833282 0 -6.4881887 -0.3930726 -6.4881887 -0.8779526l0 0c0 -0.48487997 2.9048605 -0.8779528 6.4881887 -0.8779528c3.5833282 0 6.4881897 0.39307284 6.4881897 0.8779528l0 5.267716c0 0.48488045 -2.9048615 0.8779535 -6.4881897 0.8779535c-3.5833282 0 -6.4881887 -0.39307308 -6.4881887 -0.8779535l0 -5.267716" fill-rule="nonzero"></path><path stroke="#ffffff" stroke-width="1.0" stroke-linejoin="round" stroke-linecap="butt" d="m26.419996 4.3070264l0 0c0 0.48487997 -2.9048615 0.8779526 -6.4881897 0.8779526c-3.5833282 0 -6.4881887 -0.3930726 -6.4881887 -0.8779526l0 0c0 -0.48487997 2.9048605 -0.8779528 6.4881887 -0.8779528c3.5833282 0 6.4881897 0.39307284 6.4881897 0.8779528l0 5.267716c0 0.48488045 -2.9048615 0.8779535 -6.4881897 0.8779535c-3.5833282 0 -6.4881887 -0.39307308 -6.4881887 -0.8779535l0 -5.267716" fill-rule="nonzero"></path><path fill="#000000" fill-opacity="0.0" d="m22.726538 27.460299l2.4881897 0" fill-rule="nonzero"></path><path stroke="#ffffff" stroke-width="1.0" stroke-linejoin="round" stroke-linecap="butt" d="m22.726538 27.460299l2.4881897 0" fill-rule="nonzero"></path><path fill="#fe2e2e" d="m18.745281 23.869865l0 0c0 -0.50444984 0.40893555 -0.9133854 0.9133854 -0.9133854l0 0c0.24224472 0 0.4745674 0.09623146 0.6458607 0.2675228c0.17129326 0.17129326 0.26752472 0.40361786 0.26752472 0.6458626l0 0c0 0.50444794 -0.40893745 0.9133854 -0.9133854 0.9133854l0 0c-0.50444984 0 -0.9133854 -0.40893745 -0.9133854 -0.9133854z" fill-rule="nonzero"></path><path fill="#fe2e2e" d="m18.745281 26.830235l0 0c0 -0.50444984 0.40893555 -0.9133873 0.9133854 -0.9133873l0 0c0.24224472 0 0.4745674 0.09623146 0.6458607 0.26752472c0.17129326 0.17129326 0.26752472 0.40361595 0.26752472 0.6458626l0 0c0 0.50444794 -0.40893745 0.9133854 -0.9133854 0.9133854l0 0c-0.50444984 0 -0.9133854 -0.40893745 -0.9133854 -0.9133854z" fill-rule="nonzero"></path></g></svg>

