<?xml version="1.0" standalone="yes"?>

<svg version="1.1" viewBox="0.0 0.0 377.9527559055118 377.9527559055118" fill="none" stroke="none" stroke-linecap="square" stroke-miterlimit="10" xmlns="http://www.w3.org/2000/svg" xmlns:xlink="http://www.w3.org/1999/xlink"><clipPath id="p.0"><path d="m0 0l377.95276 0l0 377.95276l-377.95276 0l0 -377.95276z" clip-rule="nonzero"></path></clipPath><g clip-path="url(#p.0)"><path fill="#000000" fill-opacity="0.0" d="m0 0l377.95276 0l0 377.95276l-377.95276 0z" fill-rule="nonzero"></path><path fill="#000000" d="m117.60578 53.573265l0 0c0 -3.65588 2.9636765 -6.6195564 6.6195602 -6.6195564l112.05223 0c1.7556152 0 3.4393158 0.6974144 4.680725 1.9388237c1.2414093 1.2414055 1.9388275 2.9251175 1.9388275 4.6807327l0 26.477425c0 3.6558762 -2.963684 6.6195526 -6.6195526 6.6195526l-112.05223 0c-3.6558838 0 -6.6195602 -2.9636765 -6.6195602 -6.6195526z" fill-rule="nonzero"></path><path fill="#e69138" d="m22.313648 220.01675l0 0c0 -87.22621 70.7108 -157.93701 157.93701 -157.93701l0 0c41.887497 0 82.0594 16.63974 111.67833 46.258675c29.618927 29.618935 46.258667 69.79084 46.258667 111.67834l0 0c0 87.2262 -70.710785 157.93701 -157.937 157.93701l0 0c-87.226204 0 -157.93701 -70.710815 -157.93701 -157.93701z" fill-rule="nonzero"></path><path fill="#ffd966" d="m30.360893 220.0158l0 0c0 -82.78183 67.10793 -149.88976 149.88977 -149.88976l0 0c39.753235 0 77.87828 15.791908 105.98808 43.901695c28.109772 28.10978 43.901672 66.234825 43.901672 105.98806l0 0c0 82.781845 -67.10791 149.88979 -149.88976 149.88979l0 0c-82.78183 0 -149.88977 -67.10794 -149.88977 -149.88979z" fill-rule="nonzero"></path><path fill="#45818e" d="m117.60499 -118.51873l125.29134 0l0 132.37794l-62.645676 33.094486l-62.645668 -33.094486z" fill-rule="nonzero"></path><path fill="#ffd966" d="m278.0945 75.05366l31.917725 -6.7453537l6.853943 -31.412128l6.8539124 31.412128l31.917725 6.7453537l-31.917725 6.745346l-6.8539124 31.412132l-6.853943 -31.412132z" fill-rule="nonzero"></path><path fill="#434343" d="m77.948944 141.77193c0.20146942 -30.043259 24.555626 -54.322487 54.59935 -54.43139c30.043747 -0.10890198 54.573273 23.993134 54.992523 54.03414z" fill-rule="nonzero"></path><path fill="#434343" d="m77.94228 140.28702l0 0c0 -0.57403564 0.4653473 -1.0393829 1.0393906 -1.0393829l124.566895 0c0.27565002 0 0.5400238 0.10949707 0.73495483 0.3044281c0.19491577 0.19491577 0.3044281 0.45928955 0.3044281 0.73495483l0 4.15744c0 0.57403564 -0.4653473 1.0393982 -1.0393829 1.0393982l-124.566895 0l0 0c-0.5740433 0 -1.0393906 -0.46536255 -1.0393906 -1.0393982z" fill-rule="nonzero"></path><path fill="#434343" d="m187.54076 151.64449c-0.20146179 30.043259 -24.555618 54.322495 -54.59935 54.431396c-30.04374 0.10888672 -54.573265 -23.993149 -54.992523 -54.03415z" fill-rule="nonzero"></path><path fill="#434343" d="m83.54677 329.87146l17.708664 -119.52754l53.125977 0l-17.708649 119.52754z" fill-rule="nonzero"></path><path fill="#434343" d="m178.97734 255.14969l0 0c0 -1.3568268 1.0999298 -2.4567413 2.4567566 -2.4567413l59.62195 0c0.65156555 0 1.2764435 0.25883484 1.7371674 0.7195587c0.46073914 0.46072388 0.719574 1.0856018 0.719574 1.7371826l0 9.82666c0 1.356842 -1.0999298 2.4567566 -2.4567413 2.4567566l-59.62195 0c-1.3568268 0 -2.4567566 -1.0999146 -2.4567566 -2.4567566z" fill-rule="nonzero"></path><path fill="#434343" d="m145.52286 212.00246l0 0c1.0060272 -0.9161377 2.5632477 -0.8423767 3.4781494 0.1647644l39.489975 43.470932c0.43936157 0.48364258 0.668808 1.1222534 0.63786316 1.7753296c-0.030929565 0.6530762 -0.3197174 1.2671509 -0.8028259 1.7070923l-7.286026 6.6351013c-1.006012 0.9161377 -2.5632324 0.8423767 -3.4781494 -0.1647644l-39.48996 -43.470932c-0.914917 -1.0071411 -0.8410492 -2.566269 0.16496277 -3.4824066z" fill-rule="nonzero"></path><path fill="#ffd966" d="m299.1937 175.20277l-99.963394 0l19.992676 -32.159042l59.978043 0z" fill-rule="nonzero"></path><path stroke="#434343" stroke-width="8.0" stroke-linejoin="round" stroke-linecap="butt" d="m299.1937 175.20277l-99.963394 0l19.992676 -32.159042l59.978043 0z" fill-rule="nonzero"></path><path fill="#ffd966" d="m199.36372 173.77179l99.999985 0l0 71.68504l-99.999985 0z" fill-rule="nonzero"></path><path stroke="#434343" stroke-width="8.0" stroke-linejoin="round" stroke-linecap="butt" d="m199.36372 173.77179l99.999985 0l0 71.68504l-99.999985 0z" fill-rule="nonzero"></path><path fill="#000000" fill-opacity="0.0" d="m249.21199 143.04373l0.15748596 30.740158" fill-rule="nonzero"></path><path stroke="#434343" stroke-width="8.0" stroke-linejoin="round" stroke-linecap="butt" d="m249.21199 143.04373l0.15748596 30.740158" fill-rule="nonzero"></path></g></svg>

